<mxfile host="app.diagrams.net" agent="Mozilla/5.0 (X11; Linux x86_64; rv:130.0) Gecko/20100101 Firefox/130.0" version="24.8.6">
  <diagram name="Page-1" id="X9py8qPNmhiQziaTyPdJ">
    <mxGraphModel dx="2235" dy="1043" grid="1" gridSize="10" guides="1" tooltips="1" connect="1" arrows="1" fold="1" page="1" pageScale="1" pageWidth="850" pageHeight="1100" math="0" shadow="0">
      <root>
        <mxCell id="0" />
        <mxCell id="1" parent="0" />
        <mxCell id="wq1x-DvyOyqJZuiO0ZfP-2" style="edgeStyle=orthogonalEdgeStyle;rounded=0;orthogonalLoop=1;jettySize=auto;html=1;exitX=0.5;exitY=1;exitDx=0;exitDy=0;" parent="1" source="wq1x-DvyOyqJZuiO0ZfP-1" edge="1">
          <mxGeometry relative="1" as="geometry">
            <mxPoint x="425.33333333333337" y="170" as="targetPoint" />
          </mxGeometry>
        </mxCell>
        <mxCell id="wq1x-DvyOyqJZuiO0ZfP-1" value="&lt;font style=&quot;font-size: 24px;&quot; face=&quot;Lucida Console&quot;&gt;START&lt;/font&gt;" style="ellipse;whiteSpace=wrap;html=1;" parent="1" vertex="1">
          <mxGeometry x="365" y="40" width="120" height="80" as="geometry" />
        </mxCell>
        <mxCell id="wq1x-DvyOyqJZuiO0ZfP-8" style="edgeStyle=orthogonalEdgeStyle;rounded=0;orthogonalLoop=1;jettySize=auto;html=1;entryX=0.5;entryY=0;entryDx=0;entryDy=0;" parent="1" edge="1">
          <mxGeometry relative="1" as="geometry">
            <mxPoint x="425.25" y="290" as="targetPoint" />
            <mxPoint x="425.5" y="240" as="sourcePoint" />
          </mxGeometry>
        </mxCell>
        <mxCell id="U0mUFiChf7s_CxI3_zp7-6" style="edgeStyle=orthogonalEdgeStyle;rounded=0;orthogonalLoop=1;jettySize=auto;html=1;entryX=0.5;entryY=1;entryDx=0;entryDy=0;" parent="1" source="wq1x-DvyOyqJZuiO0ZfP-11" target="U0mUFiChf7s_CxI3_zp7-7" edge="1">
          <mxGeometry relative="1" as="geometry">
            <mxPoint x="570" y="330" as="targetPoint" />
          </mxGeometry>
        </mxCell>
        <mxCell id="S49HFV8g3zY78zUIFEd3-14" style="edgeStyle=orthogonalEdgeStyle;rounded=0;orthogonalLoop=1;jettySize=auto;html=1;exitX=0.5;exitY=1;exitDx=0;exitDy=0;entryX=0;entryY=0.5;entryDx=0;entryDy=0;" parent="1" source="wq1x-DvyOyqJZuiO0ZfP-11" target="S49HFV8g3zY78zUIFEd3-18" edge="1">
          <mxGeometry relative="1" as="geometry">
            <mxPoint x="540" y="1050" as="targetPoint" />
            <Array as="points">
              <mxPoint x="420" y="1070" />
              <mxPoint x="540" y="1070" />
              <mxPoint x="540" y="1052" />
              <mxPoint x="582" y="1052" />
            </Array>
          </mxGeometry>
        </mxCell>
        <mxCell id="wq1x-DvyOyqJZuiO0ZfP-11" value="&lt;font style=&quot;font-size: 18px;&quot; face=&quot;Helvetica&quot;&gt;i &amp;lt; transactions ?&lt;/font&gt;" style="rhombus;whiteSpace=wrap;html=1;" parent="1" vertex="1">
          <mxGeometry x="316.25" y="970" width="207.5" height="80" as="geometry" />
        </mxCell>
        <mxCell id="U0mUFiChf7s_CxI3_zp7-4" value="int balance;&lt;div&gt;int transactions[];&lt;/div&gt;&lt;div&gt;int toBeProcessed[];&lt;/div&gt;&lt;div&gt;int skipped = 0;&lt;/div&gt;" style="rounded=0;whiteSpace=wrap;html=1;" parent="1" vertex="1">
          <mxGeometry x="353" y="170" width="145" height="70" as="geometry" />
        </mxCell>
        <mxCell id="U0mUFiChf7s_CxI3_zp7-11" style="edgeStyle=orthogonalEdgeStyle;rounded=0;orthogonalLoop=1;jettySize=auto;html=1;" parent="1" source="U0mUFiChf7s_CxI3_zp7-7" edge="1">
          <mxGeometry relative="1" as="geometry">
            <mxPoint x="430" y="260" as="targetPoint" />
            <Array as="points">
              <mxPoint x="605" y="260" />
            </Array>
          </mxGeometry>
        </mxCell>
        <mxCell id="U0mUFiChf7s_CxI3_zp7-7" value="&lt;font style=&quot;font-size: 18px;&quot;&gt;i++&lt;/font&gt;" style="rounded=0;whiteSpace=wrap;html=1;" parent="1" vertex="1">
          <mxGeometry x="545" y="600" width="120" height="60" as="geometry" />
        </mxCell>
        <mxCell id="U0mUFiChf7s_CxI3_zp7-14" style="edgeStyle=orthogonalEdgeStyle;rounded=0;orthogonalLoop=1;jettySize=auto;html=1;entryX=0.5;entryY=0;entryDx=0;entryDy=0;" parent="1" source="U0mUFiChf7s_CxI3_zp7-12" target="U0mUFiChf7s_CxI3_zp7-13" edge="1">
          <mxGeometry relative="1" as="geometry" />
        </mxCell>
        <mxCell id="U0mUFiChf7s_CxI3_zp7-16" style="edgeStyle=orthogonalEdgeStyle;rounded=0;orthogonalLoop=1;jettySize=auto;html=1;" parent="1" source="U0mUFiChf7s_CxI3_zp7-12" edge="1">
          <mxGeometry relative="1" as="geometry">
            <mxPoint x="460" y="560" as="targetPoint" />
            <Array as="points">
              <mxPoint x="540" y="330" />
              <mxPoint x="540" y="560" />
            </Array>
          </mxGeometry>
        </mxCell>
        <mxCell id="U0mUFiChf7s_CxI3_zp7-12" value="if balance +&lt;div&gt;transaction &amp;lt; 0&lt;/div&gt;" style="rhombus;whiteSpace=wrap;html=1;" parent="1" vertex="1">
          <mxGeometry x="385" y="290" width="80" height="80" as="geometry" />
        </mxCell>
        <mxCell id="U0mUFiChf7s_CxI3_zp7-15" style="edgeStyle=orthogonalEdgeStyle;rounded=0;orthogonalLoop=1;jettySize=auto;html=1;entryX=0;entryY=0.5;entryDx=0;entryDy=0;" parent="1" source="U0mUFiChf7s_CxI3_zp7-13" target="wq1x-DvyOyqJZuiO0ZfP-11" edge="1">
          <mxGeometry relative="1" as="geometry">
            <mxPoint x="260" y="570" as="targetPoint" />
            <Array as="points">
              <mxPoint x="260" y="460" />
              <mxPoint x="260" y="1010" />
            </Array>
          </mxGeometry>
        </mxCell>
        <mxCell id="U0mUFiChf7s_CxI3_zp7-13" value="&lt;font style=&quot;font-size: 12px;&quot;&gt;toBeProcessed[skipped++]&lt;/font&gt;&lt;div style=&quot;&quot;&gt;&lt;font style=&quot;font-size: 12px;&quot;&gt;= transactions[i]&lt;/font&gt;&lt;/div&gt;" style="rounded=0;whiteSpace=wrap;html=1;align=center;" parent="1" vertex="1">
          <mxGeometry x="342.5" y="430" width="165" height="60" as="geometry" />
        </mxCell>
        <mxCell id="S49HFV8g3zY78zUIFEd3-1" style="edgeStyle=orthogonalEdgeStyle;rounded=0;orthogonalLoop=1;jettySize=auto;html=1;" parent="1" source="U0mUFiChf7s_CxI3_zp7-17" target="U0mUFiChf7s_CxI3_zp7-18" edge="1">
          <mxGeometry relative="1" as="geometry" />
        </mxCell>
        <mxCell id="S49HFV8g3zY78zUIFEd3-7" style="edgeStyle=orthogonalEdgeStyle;rounded=0;orthogonalLoop=1;jettySize=auto;html=1;entryX=0;entryY=0.5;entryDx=0;entryDy=0;" parent="1" source="U0mUFiChf7s_CxI3_zp7-17" target="S49HFV8g3zY78zUIFEd3-6" edge="1">
          <mxGeometry relative="1" as="geometry">
            <mxPoint x="290" y="900" as="targetPoint" />
            <Array as="points">
              <mxPoint x="320" y="560" />
              <mxPoint x="320" y="915" />
            </Array>
          </mxGeometry>
        </mxCell>
        <mxCell id="U0mUFiChf7s_CxI3_zp7-17" value="if balance +&lt;div&gt;transactions[i]&amp;nbsp;&lt;/div&gt;&lt;div&gt;== 0&lt;/div&gt;" style="rhombus;whiteSpace=wrap;html=1;" parent="1" vertex="1">
          <mxGeometry x="365" y="520" width="110" height="80" as="geometry" />
        </mxCell>
        <mxCell id="S49HFV8g3zY78zUIFEd3-23" style="edgeStyle=orthogonalEdgeStyle;rounded=0;orthogonalLoop=1;jettySize=auto;html=1;entryX=0.5;entryY=0;entryDx=0;entryDy=0;" parent="1" source="U0mUFiChf7s_CxI3_zp7-18" target="S49HFV8g3zY78zUIFEd3-22" edge="1">
          <mxGeometry relative="1" as="geometry" />
        </mxCell>
        <mxCell id="U0mUFiChf7s_CxI3_zp7-18" value="&lt;div style=&quot;font-size: 16px;&quot;&gt;&lt;font style=&quot;font-size: 16px;&quot;&gt;breakIndex = i&lt;br&gt;&lt;/font&gt;&lt;/div&gt;" style="rounded=0;whiteSpace=wrap;html=1;" parent="1" vertex="1">
          <mxGeometry x="360" y="640" width="120" height="60" as="geometry" />
        </mxCell>
        <mxCell id="S49HFV8g3zY78zUIFEd3-16" style="edgeStyle=orthogonalEdgeStyle;rounded=0;orthogonalLoop=1;jettySize=auto;html=1;" parent="1" source="S49HFV8g3zY78zUIFEd3-5" edge="1">
          <mxGeometry relative="1" as="geometry">
            <mxPoint x="420" y="1070" as="targetPoint" />
            <Array as="points">
              <mxPoint x="290" y="840" />
              <mxPoint x="290" y="1070" />
            </Array>
          </mxGeometry>
        </mxCell>
        <mxCell id="S49HFV8g3zY78zUIFEd3-5" value="&lt;font style=&quot;font-size: 24px;&quot; face=&quot;Lucida Console&quot;&gt;BREAK&lt;/font&gt;" style="ellipse;whiteSpace=wrap;html=1;" parent="1" vertex="1">
          <mxGeometry x="360" y="800" width="120" height="80" as="geometry" />
        </mxCell>
        <mxCell id="S49HFV8g3zY78zUIFEd3-6" value="&lt;div&gt;balance +=&lt;/div&gt;&lt;div&gt;transactions[i]&lt;br&gt;&lt;/div&gt;" style="rounded=0;whiteSpace=wrap;html=1;" parent="1" vertex="1">
          <mxGeometry x="361" y="885" width="120" height="60" as="geometry" />
        </mxCell>
        <mxCell id="S49HFV8g3zY78zUIFEd3-8" value="&lt;font face=&quot;Lucida Console&quot; style=&quot;font-size: 18px;&quot;&gt;NO&lt;/font&gt;" style="text;html=1;align=center;verticalAlign=middle;resizable=0;points=[];autosize=1;strokeColor=none;fillColor=none;" parent="1" vertex="1">
          <mxGeometry x="481" y="293" width="50" height="40" as="geometry" />
        </mxCell>
        <mxCell id="S49HFV8g3zY78zUIFEd3-9" value="&lt;font face=&quot;Lucida Console&quot; style=&quot;font-size: 18px;&quot;&gt;YES&lt;/font&gt;" style="text;html=1;align=center;verticalAlign=middle;resizable=0;points=[];autosize=1;strokeColor=none;fillColor=none;rotation=90;" parent="1" vertex="1">
          <mxGeometry x="380" y="380" width="60" height="40" as="geometry" />
        </mxCell>
        <mxCell id="S49HFV8g3zY78zUIFEd3-11" value="&lt;font face=&quot;Lucida Console&quot; style=&quot;font-size: 18px;&quot;&gt;NO&lt;/font&gt;" style="text;html=1;align=center;verticalAlign=middle;resizable=0;points=[];autosize=1;strokeColor=none;fillColor=none;" parent="1" vertex="1">
          <mxGeometry x="316.25" y="520" width="50" height="40" as="geometry" />
        </mxCell>
        <mxCell id="S49HFV8g3zY78zUIFEd3-12" value="&lt;font face=&quot;Lucida Console&quot; style=&quot;font-size: 17px;&quot;&gt;YES&lt;br&gt;&lt;/font&gt;" style="text;html=1;align=center;verticalAlign=middle;resizable=0;points=[];autosize=1;strokeColor=none;fillColor=none;rotation=90;" parent="1" vertex="1">
          <mxGeometry x="415" y="600" width="60" height="30" as="geometry" />
        </mxCell>
        <mxCell id="S49HFV8g3zY78zUIFEd3-13" value="&lt;font style=&quot;font-size: 18px;&quot; face=&quot;Lucida Console&quot;&gt;NO&lt;/font&gt;" style="text;html=1;align=center;verticalAlign=middle;resizable=0;points=[];autosize=1;strokeColor=none;fillColor=none;" parent="1" vertex="1">
          <mxGeometry x="545" y="960" width="50" height="40" as="geometry" />
        </mxCell>
        <mxCell id="S49HFV8g3zY78zUIFEd3-15" value="&lt;font style=&quot;font-size: 18px;&quot; face=&quot;Lucida Console&quot;&gt;YES&lt;/font&gt;" style="text;html=1;align=center;verticalAlign=middle;resizable=0;points=[];autosize=1;strokeColor=none;fillColor=none;" parent="1" vertex="1">
          <mxGeometry x="470" y="1033" width="60" height="40" as="geometry" />
        </mxCell>
        <mxCell id="S49HFV8g3zY78zUIFEd3-18" value="&lt;div style=&quot;font-size: 15px;&quot;&gt;&lt;font face=&quot;Helvetica&quot; style=&quot;font-size: 15px;&quot;&gt;Print&lt;/font&gt;&lt;/div&gt;&lt;div style=&quot;font-size: 15px;&quot;&gt;&lt;font face=&quot;Helvetica&quot; style=&quot;font-size: 15px;&quot;&gt;Statements&lt;br&gt;&lt;/font&gt;&lt;/div&gt;" style="ellipse;whiteSpace=wrap;html=1;aspect=fixed;" parent="1" vertex="1">
          <mxGeometry x="582" y="1010" width="83" height="83" as="geometry" />
        </mxCell>
        <mxCell id="S49HFV8g3zY78zUIFEd3-24" style="edgeStyle=orthogonalEdgeStyle;rounded=0;orthogonalLoop=1;jettySize=auto;html=1;entryX=0.5;entryY=0;entryDx=0;entryDy=0;" parent="1" edge="1">
          <mxGeometry relative="1" as="geometry">
            <mxPoint x="419.92" y="787" as="sourcePoint" />
            <mxPoint x="419.92" y="800" as="targetPoint" />
          </mxGeometry>
        </mxCell>
        <mxCell id="S49HFV8g3zY78zUIFEd3-22" value="&lt;div style=&quot;font-size: 11px;&quot;&gt;&lt;font style=&quot;font-size: 11px;&quot;&gt;Skip All&lt;/font&gt;&lt;/div&gt;&lt;div style=&quot;font-size: 11px;&quot;&gt;&lt;font style=&quot;font-size: 11px;&quot;&gt;Transactions&lt;br&gt;&lt;/font&gt;&lt;/div&gt;" style="ellipse;whiteSpace=wrap;html=1;aspect=fixed;" parent="1" vertex="1">
          <mxGeometry x="385" y="717" width="70" height="70" as="geometry" />
        </mxCell>
        <mxCell id="S49HFV8g3zY78zUIFEd3-27" value="&lt;div style=&quot;font-size: 16px;&quot;&gt;&lt;font style=&quot;font-size: 16px;&quot; face=&quot;Helvetica&quot;&gt;Print&lt;/font&gt;&lt;/div&gt;&lt;div style=&quot;font-size: 16px;&quot;&gt;&lt;font style=&quot;font-size: 16px;&quot; face=&quot;Helvetica&quot;&gt;Statements&lt;br&gt;&lt;/font&gt;&lt;/div&gt;" style="ellipse;whiteSpace=wrap;html=1;aspect=fixed;" parent="1" vertex="1">
          <mxGeometry x="208.25" y="1130" width="100" height="100" as="geometry" />
        </mxCell>
        <mxCell id="S49HFV8g3zY78zUIFEd3-35" style="edgeStyle=orthogonalEdgeStyle;rounded=0;orthogonalLoop=1;jettySize=auto;html=1;entryX=0.5;entryY=0;entryDx=0;entryDy=0;" parent="1" source="S49HFV8g3zY78zUIFEd3-28" target="S49HFV8g3zY78zUIFEd3-34" edge="1">
          <mxGeometry relative="1" as="geometry" />
        </mxCell>
        <mxCell id="S49HFV8g3zY78zUIFEd3-28" value="&lt;div style=&quot;font-size: 16px;&quot;&gt;&lt;font style=&quot;font-size: 16px;&quot;&gt;Skip All&lt;/font&gt;&lt;/div&gt;&lt;div style=&quot;font-size: 16px;&quot;&gt;&lt;font style=&quot;font-size: 16px;&quot;&gt;&lt;font style=&quot;font-size: 16px;&quot;&gt;Transactions&lt;/font&gt;&lt;font style=&quot;font-size: 16px;&quot;&gt;&lt;br&gt;&lt;/font&gt;&lt;/font&gt;&lt;/div&gt;" style="ellipse;whiteSpace=wrap;html=1;aspect=fixed;" parent="1" vertex="1">
          <mxGeometry x="545" y="1130" width="100" height="100" as="geometry" />
        </mxCell>
        <mxCell id="S49HFV8g3zY78zUIFEd3-33" style="edgeStyle=orthogonalEdgeStyle;rounded=0;orthogonalLoop=1;jettySize=auto;html=1;entryX=0.505;entryY=-0.012;entryDx=0;entryDy=0;entryPerimeter=0;" parent="1" source="S49HFV8g3zY78zUIFEd3-6" target="wq1x-DvyOyqJZuiO0ZfP-11" edge="1">
          <mxGeometry relative="1" as="geometry" />
        </mxCell>
        <mxCell id="S49HFV8g3zY78zUIFEd3-37" style="edgeStyle=orthogonalEdgeStyle;rounded=0;orthogonalLoop=1;jettySize=auto;html=1;entryX=0.5;entryY=0;entryDx=0;entryDy=0;" parent="1" source="S49HFV8g3zY78zUIFEd3-34" target="S49HFV8g3zY78zUIFEd3-36" edge="1">
          <mxGeometry relative="1" as="geometry" />
        </mxCell>
        <mxCell id="S49HFV8g3zY78zUIFEd3-34" value="&lt;font style=&quot;font-size: 16px;&quot;&gt;j = breakIndex + 1;&lt;/font&gt;" style="rounded=0;whiteSpace=wrap;html=1;" parent="1" vertex="1">
          <mxGeometry x="522.5" y="1270" width="145" height="60" as="geometry" />
        </mxCell>
        <mxCell id="S49HFV8g3zY78zUIFEd3-39" style="edgeStyle=orthogonalEdgeStyle;rounded=0;orthogonalLoop=1;jettySize=auto;html=1;entryX=0.5;entryY=0;entryDx=0;entryDy=0;" parent="1" source="S49HFV8g3zY78zUIFEd3-36" target="S49HFV8g3zY78zUIFEd3-38" edge="1">
          <mxGeometry relative="1" as="geometry" />
        </mxCell>
        <mxCell id="S49HFV8g3zY78zUIFEd3-36" value="&lt;div style=&quot;font-size: 13px;&quot;&gt;&lt;font style=&quot;font-size: 13px;&quot;&gt;toBeProcessed[skipped++]&lt;/font&gt;&lt;/div&gt;&lt;font style=&quot;font-size: 13px;&quot;&gt;= transactions[ j ];&lt;br&gt;&lt;/font&gt;" style="rounded=0;whiteSpace=wrap;html=1;" parent="1" vertex="1">
          <mxGeometry x="508.75" y="1370" width="172.5" height="70" as="geometry" />
        </mxCell>
        <mxCell id="S49HFV8g3zY78zUIFEd3-40" style="edgeStyle=orthogonalEdgeStyle;rounded=0;orthogonalLoop=1;jettySize=auto;html=1;entryX=0;entryY=0.5;entryDx=0;entryDy=0;" parent="1" source="S49HFV8g3zY78zUIFEd3-38" target="S49HFV8g3zY78zUIFEd3-36" edge="1">
          <mxGeometry relative="1" as="geometry">
            <mxPoint x="440" y="1400" as="targetPoint" />
            <Array as="points">
              <mxPoint x="430" y="1525" />
              <mxPoint x="430" y="1405" />
            </Array>
          </mxGeometry>
        </mxCell>
        <mxCell id="S49HFV8g3zY78zUIFEd3-43" style="edgeStyle=orthogonalEdgeStyle;rounded=0;orthogonalLoop=1;jettySize=auto;html=1;" parent="1" source="S49HFV8g3zY78zUIFEd3-38" edge="1">
          <mxGeometry relative="1" as="geometry">
            <mxPoint x="595" y="1630" as="targetPoint" />
          </mxGeometry>
        </mxCell>
        <mxCell id="S49HFV8g3zY78zUIFEd3-38" value="&lt;font style=&quot;font-size: 14px;&quot;&gt;j &amp;lt; transactions?&lt;/font&gt;" style="rhombus;whiteSpace=wrap;html=1;" parent="1" vertex="1">
          <mxGeometry x="527.5" y="1480" width="135" height="90" as="geometry" />
        </mxCell>
        <mxCell id="S49HFV8g3zY78zUIFEd3-41" value="&lt;font style=&quot;font-size: 18px;&quot;&gt;YES&lt;/font&gt;" style="text;html=1;align=center;verticalAlign=middle;resizable=0;points=[];autosize=1;strokeColor=none;fillColor=none;" parent="1" vertex="1">
          <mxGeometry x="470" y="1490" width="60" height="40" as="geometry" />
        </mxCell>
        <mxCell id="S49HFV8g3zY78zUIFEd3-42" value="j++" style="rounded=0;whiteSpace=wrap;html=1;" parent="1" vertex="1">
          <mxGeometry x="396.5" y="1437" width="68" height="60" as="geometry" />
        </mxCell>
        <mxCell id="S49HFV8g3zY78zUIFEd3-44" value="&lt;font style=&quot;font-size: 18px;&quot;&gt;NO&lt;br&gt;&lt;/font&gt;" style="text;html=1;align=center;verticalAlign=middle;resizable=0;points=[];autosize=1;strokeColor=none;fillColor=none;rotation=90;" parent="1" vertex="1">
          <mxGeometry x="590" y="1570" width="50" height="40" as="geometry" />
        </mxCell>
        <mxCell id="S49HFV8g3zY78zUIFEd3-45" value="&lt;font style=&quot;font-size: 24px;&quot; face=&quot;Lucida Console&quot;&gt;END&lt;/font&gt;" style="ellipse;whiteSpace=wrap;html=1;" parent="1" vertex="1">
          <mxGeometry x="535" y="1630" width="120" height="80" as="geometry" />
        </mxCell>
        <mxCell id="S49HFV8g3zY78zUIFEd3-55" style="edgeStyle=orthogonalEdgeStyle;rounded=0;orthogonalLoop=1;jettySize=auto;html=1;entryX=0.5;entryY=0;entryDx=0;entryDy=0;" parent="1" source="S49HFV8g3zY78zUIFEd3-47" target="S49HFV8g3zY78zUIFEd3-53" edge="1">
          <mxGeometry relative="1" as="geometry" />
        </mxCell>
        <mxCell id="S49HFV8g3zY78zUIFEd3-47" value="&lt;div style=&quot;font-size: 13px;&quot;&gt;&lt;font style=&quot;font-size: 13px;&quot; face=&quot;Lucida Console&quot;&gt;Print&lt;/font&gt;&lt;/div&gt;&lt;div style=&quot;font-size: 13px;&quot;&gt;&lt;font style=&quot;font-size: 13px;&quot;&gt;&lt;font style=&quot;font-size: 13px;&quot;&gt;Final Balance&lt;/font&gt;&lt;font style=&quot;font-size: 13px;&quot;&gt;&lt;br&gt;&lt;/font&gt;&lt;/font&gt;&lt;/div&gt;" style="shape=display;whiteSpace=wrap;html=1;" parent="1" vertex="1">
          <mxGeometry x="203.79" y="1260" width="108.91" height="51.25" as="geometry" />
        </mxCell>
        <mxCell id="S49HFV8g3zY78zUIFEd3-48" style="edgeStyle=orthogonalEdgeStyle;rounded=0;orthogonalLoop=1;jettySize=auto;html=1;entryX=0.501;entryY=-0.029;entryDx=0;entryDy=0;entryPerimeter=0;" parent="1" source="S49HFV8g3zY78zUIFEd3-27" target="S49HFV8g3zY78zUIFEd3-47" edge="1">
          <mxGeometry relative="1" as="geometry" />
        </mxCell>
        <mxCell id="S49HFV8g3zY78zUIFEd3-59" style="edgeStyle=orthogonalEdgeStyle;rounded=0;orthogonalLoop=1;jettySize=auto;html=1;entryX=0.5;entryY=0;entryDx=0;entryDy=0;" parent="1" source="S49HFV8g3zY78zUIFEd3-50" target="S49HFV8g3zY78zUIFEd3-58" edge="1">
          <mxGeometry relative="1" as="geometry" />
        </mxCell>
        <mxCell id="S49HFV8g3zY78zUIFEd3-50" value="&lt;div style=&quot;font-size: 13px;&quot;&gt;&lt;font style=&quot;font-size: 13px;&quot; face=&quot;Lucida Console&quot;&gt;Print&lt;/font&gt;&lt;/div&gt;&lt;div style=&quot;font-size: 13px;&quot;&gt;&lt;font style=&quot;font-size: 13px;&quot;&gt;Skipped Transa.&lt;font style=&quot;font-size: 13px;&quot;&gt;&lt;br&gt;&lt;/font&gt;&lt;/font&gt;&lt;/div&gt;" style="shape=display;whiteSpace=wrap;html=1;" parent="1" vertex="1">
          <mxGeometry x="190.14" y="1420" width="136.21" height="50" as="geometry" />
        </mxCell>
        <mxCell id="S49HFV8g3zY78zUIFEd3-53" value="int i = 0;" style="rounded=0;whiteSpace=wrap;html=1;" parent="1" vertex="1">
          <mxGeometry x="217.38" y="1350" width="81.75" height="40" as="geometry" />
        </mxCell>
        <mxCell id="S49HFV8g3zY78zUIFEd3-57" style="edgeStyle=orthogonalEdgeStyle;rounded=0;orthogonalLoop=1;jettySize=auto;html=1;entryX=0.5;entryY=0;entryDx=0;entryDy=0;entryPerimeter=0;" parent="1" source="S49HFV8g3zY78zUIFEd3-53" target="S49HFV8g3zY78zUIFEd3-50" edge="1">
          <mxGeometry relative="1" as="geometry" />
        </mxCell>
        <mxCell id="S49HFV8g3zY78zUIFEd3-60" style="edgeStyle=orthogonalEdgeStyle;rounded=0;orthogonalLoop=1;jettySize=auto;html=1;entryX=0;entryY=0.5;entryDx=0;entryDy=0;entryPerimeter=0;" parent="1" source="S49HFV8g3zY78zUIFEd3-58" target="S49HFV8g3zY78zUIFEd3-50" edge="1">
          <mxGeometry relative="1" as="geometry">
            <mxPoint x="180" y="1450" as="targetPoint" />
            <Array as="points">
              <mxPoint x="131" y="1523" />
              <mxPoint x="131" y="1445" />
            </Array>
          </mxGeometry>
        </mxCell>
        <mxCell id="S49HFV8g3zY78zUIFEd3-63" style="edgeStyle=orthogonalEdgeStyle;rounded=0;orthogonalLoop=1;jettySize=auto;html=1;" parent="1" source="S49HFV8g3zY78zUIFEd3-58" edge="1">
          <mxGeometry relative="1" as="geometry">
            <mxPoint x="258.2550000000001" y="1610" as="targetPoint" />
          </mxGeometry>
        </mxCell>
        <mxCell id="S49HFV8g3zY78zUIFEd3-58" value="i &amp;lt; skipped?" style="rhombus;whiteSpace=wrap;html=1;" parent="1" vertex="1">
          <mxGeometry x="197.38" y="1493" width="121.75" height="60" as="geometry" />
        </mxCell>
        <mxCell id="S49HFV8g3zY78zUIFEd3-62" value="&lt;font style=&quot;font-size: 18px;&quot;&gt;NO&lt;/font&gt;" style="text;html=1;align=center;verticalAlign=middle;resizable=0;points=[];autosize=1;strokeColor=none;fillColor=none;" parent="1" vertex="1">
          <mxGeometry x="147.38" y="1490" width="50" height="40" as="geometry" />
        </mxCell>
        <mxCell id="S49HFV8g3zY78zUIFEd3-64" value="&lt;font style=&quot;font-size: 18px;&quot;&gt;YES&lt;/font&gt;" style="text;html=1;align=center;verticalAlign=middle;resizable=0;points=[];autosize=1;strokeColor=none;fillColor=none;rotation=90;" parent="1" vertex="1">
          <mxGeometry x="248.25000000000003" y="1560" width="60" height="40" as="geometry" />
        </mxCell>
        <mxCell id="S49HFV8g3zY78zUIFEd3-66" value="&lt;font style=&quot;font-size: 24px;&quot; face=&quot;Lucida Console&quot;&gt;END&lt;/font&gt;" style="ellipse;whiteSpace=wrap;html=1;" parent="1" vertex="1">
          <mxGeometry x="198.24" y="1610" width="120" height="80" as="geometry" />
        </mxCell>
      </root>
    </mxGraphModel>
  </diagram>
</mxfile>
